<svg width="198" height="198" viewBox="0 0 198 198" fill="none" xmlns="http://www.w3.org/2000/svg">
<path fill-rule="evenodd" clip-rule="evenodd" d="M194.852 22.551C195.477 22.6482 196.046 22.9656 196.457 23.4457C196.869 23.9259 197.095 24.5373 197.095 25.1695C197.095 25.8018 196.869 26.4132 196.457 26.8933C196.046 27.3735 195.477 27.6909 194.852 27.788C183.666 29.534 177.199 36.0007 175.452 47.188C175.354 47.8123 175.036 48.3811 174.556 48.7919C174.076 49.2027 173.465 49.4284 172.833 49.4284C172.201 49.4284 171.59 49.2027 171.11 48.7919C170.63 48.3811 170.312 47.8123 170.214 47.188C168.469 36.002 162.002 29.5354 150.814 27.788C150.189 27.6909 149.62 27.3735 149.209 26.8933C148.797 26.4132 148.571 25.8018 148.571 25.1695C148.571 24.5373 148.797 23.9259 149.209 23.4457C149.62 22.9656 150.189 22.6482 150.814 22.551C162 20.805 168.467 14.3384 170.214 3.15104C170.312 2.52675 170.63 1.95796 171.11 1.54719C171.59 1.13643 172.201 0.9107 172.833 0.9107C173.465 0.9107 174.076 1.13643 174.556 1.54719C175.036 1.95796 175.354 2.52675 175.452 3.15104C177.199 14.3384 183.666 20.805 194.852 22.551ZM189.823 90.225C199.839 91.788 199.839 106.212 189.823 107.775C142.509 115.159 115.16 142.508 107.775 189.823C106.212 199.839 91.788 199.839 90.225 189.823C82.841 142.509 55.4917 115.16 8.17704 107.775C-1.83896 106.212 -1.83896 91.788 8.17704 90.225C55.4917 82.841 82.841 55.4917 90.225 8.17704C91.788 -1.83896 106.212 -1.83896 107.775 8.17704C115.159 55.491 142.508 82.8404 189.823 90.225ZM125.964 111.334V111.134C125.964 98.934 117.964 93.834 103.764 90.134C91.664 87.034 88.664 85.534 88.664 80.934V80.734C88.664 77.334 91.764 74.634 97.664 74.634C103.564 74.634 109.664 77.234 115.864 81.534L123.864 69.934C116.498 64.0298 107.303 60.8821 97.864 61.034C83.564 61.034 73.364 69.434 73.364 82.134V82.334C73.364 96.234 82.464 100.134 96.564 103.734C108.264 106.734 110.664 108.734 110.664 112.634V112.834C110.664 116.934 106.864 119.434 100.564 119.434C92.564 119.434 85.964 116.134 79.664 110.934L70.564 121.834C78.7528 129.088 89.3246 133.074 100.264 133.034C115.363 133.035 125.964 125.234 125.964 111.334Z" fill="currentColor"/>
</svg>
