<svg xmlns="http://www.w3.org/2000/svg" viewBox="0 0 260 293">
  <defs>
    <style>.cls-2 { fill: #2563eb; fill-rule: evenodd; }</style>
  </defs>
  <path class="cls-2" d="M241.852,70.551a2.65,2.65,0,0,1,0,5.237q-16.779,2.619-19.4,19.4a2.651,2.651,0,0,1-5.238,0q-2.618-16.779-19.4-19.4a2.65,2.65,0,0,1,0-5.237q16.779-2.619,19.4-19.4a2.651,2.651,0,0,1,5.238,0Q225.073,67.932,241.852,70.551Zm-5.029,67.674c10.016,1.563,10.016,15.987,0,17.55q-70.971,11.076-82.048,82.048c-1.563,10.016-15.987,10.016-17.55,0q-11.076-70.971-82.048-82.048c-10.016-1.563-10.016-15.987,0-17.55q70.972-11.076,82.048-82.048c1.563-10.016,15.987-10.016,17.55,0Q165.851,127.148,236.823,138.225Zm-63.859,21.109v-0.2c0-12.2-8-17.3-22.2-21-12.1-3.1-15.1-4.6-15.1-9.2v-0.2c0-3.4,3.1-6.1,9-6.1s12,2.6,18.2,6.9l8-11.6a40.527,40.527,0,0,0-26-8.9c-14.3,0-24.5,8.4-24.5,21.1v0.2c0,13.9,9.1,17.8,23.2,21.4,11.7,3,14.1,5,14.1,8.9v0.2c0,4.1-3.8,6.6-10.1,6.6-8,0-14.6-3.3-20.9-8.5l-9.1,10.9a44.543,44.543,0,0,0,29.7,11.2C162.363,181.035,172.964,173.234,172.964,159.334Z"/>
</svg>
