<svg id="Groupe_1" data-name="Groupe 1" xmlns="http://www.w3.org/2000/svg" width="948" height="293" viewBox="0 0 948 293">
  <defs>
    <style>
      .cls-1 {
        fill-rule: evenodd;
      }
    </style>
  </defs>
  <g id="Groupe_2" data-name="Groupe 2">
    <path id="SendStock_ai" data-name="SendStock ai" class="cls-1" d="M303.961,130.532c0-6.4,5.8-11.4,14.9-11.4,7.2,0,13.7,2.3,20.2,7.6l4.6-6.1c-7.1-5.7-14.4-8.6-24.6-8.6-13.3,0-23,8-23,19.2,0,11.6,7.4,16.8,23.5,20.3,14.7,3.1,18.2,6.8,18.2,13.4,0,7.1-6.2,12-15.6,12-9.7,0-16.7-3.3-24-9.9l-4.9,5.8c8.4,7.5,17.5,11.2,28.6,11.2,13.9,0,23.9-7.8,23.9-19.9,0-10.8-7.2-16.5-22.8-19.9C307.561,140.932,303.961,137.232,303.961,130.532Zm56.2,29.5h41a20.932,20.932,0,0,0,.1-2.4c0-15.2-8.8-27.4-24.1-27.4-14.3,0-24.8,12-24.8,27,0,16.1,11.6,27,25.8,27,9.8,0,16.1-3.9,21.3-9.7l-4.8-4.3c-4.2,4.4-9.2,7.3-16.3,7.3C369.262,177.534,361.261,171.234,360.161,160.033Zm0-5.7c1-10.1,7.8-17.6,16.8-17.6,10.3,0,15.7,8.2,16.5,17.6h-33.3Zm57.3-.9c0-9.7,6.6-16.2,15.5-16.2,9.1,0,14.3,6,14.3,15.6v30.2h7.7v-32.1c0-12.3-7.3-20.7-19.8-20.7-8.9,0-14.3,4.5-17.7,10.1v-9h-7.7v51.7h7.7v-29.6Zm98.1,29.6v-73h-7.7v31.2c-4-5.8-10.2-11-19.8-11-12.4,0-24.7,10-24.7,27,0,17.1,12.3,26.9,24.7,26.9,9.5,0,15.6-5.3,19.8-11.5v10.4h7.7Zm-7.4-25.9c0,12.1-9.1,20.1-18.7,20.1-9.8,0-18.2-7.8-18.2-20.1,0-12.6,8.2-20,18.2-20C499.063,137.132,508.163,145.132,508.163,157.133Zm70,5.2v-0.2c0-12.2-8-17.3-22.2-21-12.1-3.1-15.1-4.6-15.1-9.2v-0.2c0-3.4,3.1-6.1,9-6.1s12,2.6,18.2,6.9l8-11.6a40.527,40.527,0,0,0-26-8.9c-14.3,0-24.5,8.4-24.5,21.1v0.2c0,13.9,9.1,17.8,23.2,21.4,11.7,3,14.1,5,14.1,8.9v0.2c0,4.1-3.8,6.6-10.1,6.6-8,0-14.6-3.3-20.9-8.5l-9.1,10.9a44.543,44.543,0,0,0,29.7,11.2C567.563,184.035,578.164,176.234,578.164,162.334Zm36.9,18.5v-12.2a15.466,15.466,0,0,1-7.5,1.9c-3.4,0-4.9-1.7-4.9-5.2v-22.9h12.6v-13h-12.6v-13.7h-15.2v13.7h-6.4v13h6.4v25.4c0,12.4,6.3,16.1,15.6,16.1A22.415,22.415,0,0,0,615.063,180.835Zm61.8-24.5v-0.2c0-15.4-12.3-27.7-28.9-27.7-16.7,0-29.1,12.5-29.1,27.9v0.2c0,15.4,12.3,27.7,28.9,27.7C664.463,184.235,676.864,171.734,676.864,156.333Zm-15,.2c0,7.9-5.2,14.6-13.9,14.6-8.4,0-14.1-6.9-14.1-14.8v-0.2c0-7.9,5.2-14.6,13.9-14.6,8.4,0,14.1,6.9,14.1,14.8v0.2Zm68.2,17.9-8.9-9c-3.7,3.5-7.2,5.7-12.3,5.7-8.3,0-13.6-6.6-13.6-14.8v-0.2c0-7.9,5.4-14.6,13-14.6,5.4,0,8.8,2.3,12.2,5.9l9.3-10c-5-5.6-11.3-9-21.4-9-16.4,0-28.1,12.6-28.1,27.9v0.2a27.369,27.369,0,0,0,27.9,27.7C718.863,184.235,724.863,180.135,730.064,174.434Zm56.8,8.6-21.1-32.5,20.4-21.1h-18.2l-17.8,19.5v-38.9h-15.2v73.005h15.2v-16.3l5.3-5.6,14,21.9h17.4Zm63.7-70.5h-7.4l-31.9,70.505h8.1l8.3-18.5h38.1l8.2,18.5h8.5Zm12.1,44.9h-31.9l16-35.7Zm29.3-44.4v70h7.9v-70h-7.9ZM241.852,70.551a2.65,2.65,0,0,1,0,5.237q-16.779,2.619-19.4,19.4a2.651,2.651,0,0,1-5.238,0q-2.618-16.779-19.4-19.4a2.65,2.65,0,0,1,0-5.237q16.779-2.619,19.4-19.4a2.651,2.651,0,0,1,5.238,0Q225.073,67.932,241.852,70.551Zm-5.029,67.674c10.016,1.563,10.016,15.987,0,17.55q-70.971,11.076-82.048,82.048c-1.563,10.016-15.987,10.016-17.55,0q-11.076-70.971-82.048-82.048c-10.016-1.563-10.016-15.987,0-17.55q70.972-11.076,82.048-82.048c1.563-10.016,15.987-10.016,17.55,0Q165.851,127.148,236.823,138.225Zm-63.859,21.109v-0.2c0-12.2-8-17.3-22.2-21-12.1-3.1-15.1-4.6-15.1-9.2v-0.2c0-3.4,3.1-6.1,9-6.1s12,2.6,18.2,6.9l8-11.6a40.527,40.527,0,0,0-26-8.9c-14.3,0-24.5,8.4-24.5,21.1v0.2c0,13.9,9.1,17.8,23.2,21.4,11.7,3,14.1,5,14.1,8.9v0.2c0,4.1-3.8,6.6-10.1,6.6-8,0-14.6-3.3-20.9-8.5l-9.1,10.9a44.543,44.543,0,0,0,29.7,11.2C162.363,181.035,172.964,173.234,172.964,159.334Z"/>
  </g>
</svg>
